<?xml version="1.0" standalone="no"?>
<!DOCTYPE svg PUBLIC "-//W3C//DTD SVG 20010904//EN"
 "http://www.w3.org/TR/2001/REC-SVG-20010904/DTD/svg10.dtd">
<svg version="1.0" xmlns="http://www.w3.org/2000/svg"
 width="1024.000000pt" height="1024.000000pt" viewBox="0 0 1024.000000 1024.000000"
 preserveAspectRatio="xMidYMid meet">

<g transform="translate(0.000000,1024.000000) scale(0.100000,-0.100000)"
fill="#000000" stroke="none">
<path d="M703 8003 c14 -27 45 -93 71 -148 26 -55 52 -109 58 -120 28 -48 117
-232 182 -375 40 -85 84 -176 99 -201 15 -25 35 -68 44 -95 8 -27 21 -56 28
-64 12 -14 85 -165 85 -175 0 -3 41 -91 165 -350 72 -151 125 -265 125 -270 0
-2 38 -81 85 -175 46 -94 87 -181 91 -193 6 -21 58 -132 194 -412 66 -136 130
-275 130 -281 0 -2 23 -50 51 -107 28 -56 83 -172 123 -257 62 -133 71 -159
63 -180 -6 -14 -38 -79 -71 -145 -128 -257 -232 -473 -241 -504 -4 -13 -49
-103 -100 -200 -51 -97 -107 -210 -125 -251 -18 -41 -94 -199 -170 -350 -123
-245 -158 -314 -197 -385 -22 -39 -163 -334 -163 -340 0 -3 -28 -56 -61 -116
-34 -60 -60 -112 -57 -114 8 -8 1421 -6 1428 2 10 11 69 158 85 208 7 24 26
73 43 111 17 38 72 175 122 304 51 129 107 271 125 315 18 44 43 107 55 140
12 33 26 69 31 80 5 11 16 43 25 70 15 48 59 156 89 220 23 49 115 282 155
395 61 169 110 303 124 335 45 105 84 185 107 220 32 48 140 256 159 305 7 19
21 46 30 60 23 35 68 124 213 420 175 358 217 446 217 457 0 6 11 26 24 46 13
19 27 46 31 58 4 13 30 64 57 112 27 49 67 128 88 177 21 49 59 131 85 183 25
53 45 100 45 105 0 5 6 15 14 21 8 7 17 22 20 35 6 23 56 134 141 311 23 50
53 115 66 145 13 30 36 76 52 102 15 26 45 87 66 135 21 48 61 135 89 193 27
58 64 134 81 170 17 36 35 72 40 80 6 8 35 65 65 127 30 61 66 131 81 156 14
25 22 47 18 49 -4 3 -316 6 -693 7 l-685 3 -47 -114 c-59 -141 -110 -274 -155
-403 -49 -141 -138 -375 -163 -430 -14 -29 -73 -194 -140 -385 -60 -172 -109
-305 -193 -520 -14 -36 -41 -108 -61 -160 -20 -52 -44 -113 -53 -135 -8 -22
-21 -53 -28 -70 -6 -16 -18 -46 -27 -65 l-16 -35 -12 30 c-6 17 -14 46 -17 65
-4 19 -18 64 -33 100 -57 135 -69 166 -85 220 -9 30 -27 80 -40 110 -12 30
-44 116 -70 190 -46 134 -55 160 -113 315 -17 44 -55 152 -86 240 -31 88 -72
196 -91 240 -18 44 -46 118 -61 165 -40 127 -93 280 -111 322 -9 21 -39 100
-68 175 l-51 138 -702 3 -702 2 23 -47z"/>
<path d="M6095 7300 c-108 -9 -154 -16 -260 -36 -124 -25 -156 -32 -215 -48
-30 -8 -82 -22 -115 -30 -33 -9 -69 -20 -80 -26 -11 -5 -51 -21 -90 -35 -157
-59 -267 -117 -425 -223 -169 -113 -367 -341 -464 -532 -130 -255 -217 -592
-241 -925 -7 -103 -7 -375 0 -440 3 -28 9 -93 15 -145 10 -103 13 -122 36
-220 9 -36 17 -72 19 -80 59 -274 256 -619 438 -766 23 -19 63 -54 88 -78 25
-24 65 -54 89 -66 24 -12 65 -40 92 -61 28 -21 55 -39 61 -39 7 0 54 -20 105
-45 52 -25 97 -45 100 -45 4 0 18 -6 32 -13 127 -66 413 -132 730 -168 168
-19 228 -21 440 -16 351 8 546 34 855 115 72 19 281 108 291 123 3 5 14 9 24
9 25 0 184 83 230 119 20 16 53 37 75 49 22 11 51 32 65 47 14 15 53 47 87 72
34 24 65 53 68 64 6 19 -23 71 -49 86 -8 5 -61 64 -117 132 -170 204 -180 215
-287 340 -112 131 -106 128 -177 82 -96 -62 -253 -132 -415 -183 -52 -16 -104
-34 -115 -38 -44 -18 -200 -52 -287 -62 -54 -6 -185 -8 -313 -5 -190 5 -235 9
-330 31 -60 14 -123 33 -140 41 -16 8 -61 26 -100 41 -256 97 -374 225 -432
464 -5 23 -23 133 -23 147 0 10 320 13 1553 15 l1552 3 3 150 c6 261 -23 553
-74 770 -23 96 -82 283 -103 325 -10 19 -35 73 -57 120 -21 47 -43 92 -50 100
-6 8 -23 37 -37 63 -50 92 -255 316 -345 376 -20 13 -39 27 -42 30 -9 11 -69
51 -76 51 -3 0 -18 8 -32 19 -69 49 -248 141 -273 141 -7 0 -40 13 -75 30 -69
33 -193 74 -269 90 -27 5 -77 17 -110 25 -237 57 -555 78 -830 55z m495 -975
c149 -26 179 -34 263 -70 102 -44 164 -86 248 -167 56 -53 119 -144 119 -171
0 -4 13 -35 30 -70 l29 -62 -946 -3 c-520 -1 -947 -1 -949 0 -7 7 17 98 36
138 53 113 81 149 174 224 104 83 215 129 398 165 142 28 141 28 338 29 116 1
204 -3 260 -13z"/>
</g>
</svg>
